@startuml
'https://plantuml.com/class-diagram
' @@author Kureans

hide circle
hide empty members
skinparam classAttributeIconSize 0
skinparam class {
BackgroundColor #72FFF3
ArrowColor #004C41
BorderColor #004C41
}
package medbot.parser #DDDDDD {
class "{abstract}\n Parser"
class "{abstract}\n XYZCommandParser"
class "{abstract}\n ParserUtils" {
    {static} -preprocessInput(userInput: String): String
    {static} ~getParameters(userInput: String): String
    {static} ~updateMultipleAppointmentInformation(person: Person, attributeStrings: String[])
    {static} ~updateMultiplePersonalInformation(person: Person, attributeStrings: String[])
}

"{abstract}\n Parser" ..> "{abstract}\n XYZCommandParser"
"{abstract}\n XYZCommandParser" .> "{abstract}\n ParserUtils" : > uses

note left of "{abstract}\n XYZCommandParser" : XYZCommandParser =\nPatientCommandParser/\nSchedulerCommandParser/\nStaffCommandParser
note top of "{abstract}\n ParserUtils" : Only some key methods are listed*
}

class "{abstract}\n Command"

"{abstract}\n Parser" <.up.MedBot
"{abstract}\n Command" <|- XYZCommand
"{abstract}\n XYZCommandParser" ..> XYZCommand :  > returns

note right of XYZCommand : XYZCommand = PatientCommand/\nSchedulerCommand/StaffCommand

@enduml